name C:\Users\u0101727\Documents\MyRepositories\upper-imu-dc\Results\main_tracking\Case_31\FLX01_angularVelocities_groundFrame.mot
datacolumns 4
datarows 141
range 0.51000000 1.91000000
endheader 
time	radius_imu_x	radius_imu_y	radius_imu_z	
          0.51000000	         -0.07460717	         -0.54950038	          0.30444673	
          0.52000000	         -0.12162674	         -0.53385974	          0.29283333	
          0.53000000	         -0.14344589	         -0.56978196	          0.30433546	
          0.54000000	         -0.14751950	         -0.63268743	          0.33074401	
          0.55000000	         -0.14542128	         -0.65464192	          0.35111356	
          0.56000000	         -0.14292291	         -0.62127135	          0.35869068	
          0.57000000	         -0.14416314	         -0.53206055	          0.35136795	
          0.58000000	         -0.15190329	         -0.39498646	          0.32989879	
          0.59000000	         -0.16724688	         -0.22819018	          0.29825202	
          0.60000000	         -0.18951936	         -0.05937123	          0.26334421	
          0.61000000	         -0.21659458	          0.07890097	          0.23362492	
          0.62000000	         -0.24566916	          0.15666810	          0.21693889	
          0.63000000	         -0.27425091	          0.15412917	          0.21852025	
          0.64000000	         -0.30091621	          0.06590172	          0.23995104	
          0.65000000	         -0.32538865	         -0.10052340	          0.27957070	
          0.66000000	         -0.34789430	         -0.33125170	          0.33403086	
          0.67000000	         -0.36826099	         -0.61326918	          0.40003441	
          0.68000000	         -0.38538925	         -0.93832901	          0.47530935	
          0.69000000	         -0.39742901	         -1.30207616	          0.55851026	
          0.70000000	         -0.40253537	         -1.70018150	          0.64845285	
          0.71000000	         -0.39979338	         -2.12435359	          0.74328656	
          0.72000000	         -0.38984758	         -2.56056734	          0.84008071	
          0.73000000	         -0.37495772	         -2.99028336	          0.93501338	
          0.74000000	         -0.35852635	         -3.39365989	          1.02398692	
          0.75000000	         -0.34437898	         -3.75298627	          1.10328479	
          0.76000000	         -0.33608270	         -4.05515148	          1.17001784	
          0.77000000	         -0.33643456	         -4.29295159	          1.22237545	
          0.78000000	         -0.34717280	         -4.46532730	          1.25974312	
          0.79000000	         -0.36894915	         -4.57654483	          1.28266199	
          0.80000000	         -0.40156288	         -4.63450700	          1.29258476	
          0.81000000	         -0.44432258	         -4.64874330	          1.29149851	
          0.82000000	         -0.49632270	         -4.62881345	          1.28158465	
          0.83000000	         -0.55653647	         -4.58334935	          1.26498674	
          0.84000000	         -0.62372980	         -4.51966842	          1.24367677	
          0.85000000	         -0.69631715	         -4.44369973	          1.21933889	
          0.86000000	         -0.77225565	         -4.36007586	          1.19323721	
          0.87000000	         -0.84905973	         -4.27218858	          1.16592427	
          0.88000000	         -0.92370284	         -4.18400971	          1.13786084	
          0.89000000	         -0.99243874	         -4.10695180	          1.11544627	
          0.90000000	         -1.05100684	         -4.05149482	          1.10453081	
          0.91000000	         -1.09444128	         -4.02322730	          1.10680336	
          0.92000000	         -1.11646073	         -4.02928937	          1.12504633	
          0.93000000	         -1.10941642	         -4.07850730	          1.16307947	
          0.94000000	         -1.06535100	         -4.17937893	          1.22492328	
          0.95000000	         -0.97763500	         -4.33742278	          1.31364112	
          0.96000000	         -0.84342397	         -4.55203946	          1.42978193	
          0.97000000	         -0.66593452	         -4.81400047	          1.57021012	
          0.98000000	         -0.45565521	         -5.10476662	          1.72757743	
          0.99000000	         -0.22964216	         -5.39862474	          1.89098581	
          1.00000000	         -0.00901541	         -5.66683668	          2.04733300	
          1.01000000	          0.18520224	         -5.88371432	          2.18371430	
          1.02000000	          0.33592195	         -6.03178818	          2.28984764	
          1.03000000	          0.43229917	         -6.10419113	          2.35969133	
          1.04000000	          0.46990014	         -6.10356855	          2.39161792	
          1.05000000	          0.44947717	         -6.03927506	          2.38754037	
          1.06000000	          0.37609818	         -5.92505009	          2.35201890	
          1.07000000	          0.25874950	         -5.77753367	          2.29171000	
          1.08000000	          0.10991602	         -5.61478274	          2.21473200	
          1.09000000	         -0.05584531	         -5.45399497	          2.12956618	
          1.10000000	         -0.22450150	         -5.30879518	          2.04359527	
          1.11000000	         -0.38506119	         -5.18730220	          1.96188224	
          1.12000000	         -0.53121135	         -5.09164088	          1.88665813	
          1.13000000	         -0.66159234	         -5.01891285	          1.81757675	
          1.14000000	         -0.77857394	         -4.96319867	          1.75268991	
          1.15000000	         -0.88621785	         -4.91779336	          1.68973618	
          1.16000000	         -0.98792755	         -4.87710010	          1.62738500	
          1.17000000	         -1.08468493	         -4.83754121	          1.56605817	
          1.18000000	         -1.17450948	         -4.79731995	          1.50808303	
          1.19000000	         -1.25329853	         -4.75523020	          1.45715570	
          1.20000000	         -1.31580006	         -4.70955977	          1.41759904	
          1.21000000	         -1.35820804	         -4.65634093	          1.39299963	
          1.22000000	         -1.37249799	         -4.59287967	          1.38863240	
          1.23000000	         -1.36216326	         -4.50541849	          1.38527786	
          1.24000000	         -1.31277899	         -4.39730167	          1.39388512	
          1.25000000	         -1.35528426	         -4.19350816	          1.34470970	
          1.26000000	         -1.30976995	         -4.00292997	          1.35109228	
          1.27000000	         -1.28031669	         -3.75847291	          1.32665073	
          1.28000000	         -1.22020221	         -3.48463887	          1.29071251	
          1.29000000	         -1.15171915	         -3.17472444	          1.21153335	
          1.30000000	         -1.04009730	         -2.83931381	          1.10695070	
          1.31000000	         -1.10503741	         -2.44680602	          0.94803860	
          1.32000000	         -1.20951276	         -2.07809769	          0.91983287	
          1.33000000	         -1.41189928	         -1.69829641	          0.92067891	
          1.34000000	         -1.52673565	         -1.34467117	          0.99227490	
          1.35000000	         -1.63224026	         -0.99399699	          0.93109834	
          1.36000000	         -1.57610773	         -0.67505315	          1.02326325	
          1.37000000	         -1.57909870	         -0.35158984	          0.97266219	
          1.38000000	         -1.57163421	         -0.04571683	          0.90635318	
          1.39000000	         -1.41045685	          0.16232466	          0.89385786	
          1.40000000	         -1.22898040	          0.33442410	          0.92085483	
          1.41000000	         -1.08894132	          0.43001363	          0.92772492	
          1.42000000	         -0.88798036	          0.47372133	          0.97721222	
          1.43000000	         -0.77038739	          0.45866654	          1.01568733	
          1.44000000	         -0.70408539	          0.39829787	          1.04324921	
          1.45000000	         -0.68650138	          0.30332253	          1.05299578	
          1.46000000	         -0.71468901	          0.18625942	          1.04619225	
          1.47000000	         -0.78173922	          0.05875797	          1.02501036	
          1.48000000	         -0.85683866	         -0.07402460	          0.99523548	
          1.49000000	         -1.04928596	         -0.19648673	          0.86964481	
          1.50000000	         -1.06038235	         -0.33108645	          0.90965932	
          1.51000000	         -1.26291743	         -0.44023562	          0.82848942	
          1.52000000	         -1.36805237	         -0.56546445	          0.83399528	
          1.53000000	         -1.55657371	         -0.67910969	          0.77123109	
          1.54000000	         -1.67818040	         -0.79328944	          0.72914521	
          1.55000000	         -1.75169468	         -0.89930978	          0.69843936	
          1.56000000	         -1.75418325	         -0.98891827	          0.68210094	
          1.57000000	         -1.68026876	         -1.05045073	          0.68144099	
          1.58000000	         -1.53690519	         -1.07149908	          0.69593621	
          1.59000000	         -1.33098171	         -1.04178266	          0.72644332	
          1.60000000	         -1.15681551	         -0.95317697	          0.74244349	
          1.61000000	         -0.97225480	         -0.80109705	          0.79096386	
          1.62000000	         -0.82472472	         -0.57682162	          0.81296796	
          1.63000000	         -0.66088803	         -0.28280321	          0.83414440	
          1.64000000	         -0.49232050	          0.07399297	          0.84984920	
          1.65000000	         -0.33214268	          0.47406097	          0.85549001	
          1.66000000	         -0.25350463	          0.89186627	          0.85030046	
          1.67000000	         -0.36495795	          1.28613668	          0.86776277	
          1.68000000	         -0.50624946	          1.67130315	          0.84915744	
          1.69000000	         -0.70543306	          2.02146586	          0.82119808	
          1.70000000	         -0.91420781	          2.33143205	          0.79027517	
          1.71000000	         -1.10438404	          2.60009842	          0.76108736	
          1.72000000	         -1.25795661	          2.82886854	          0.73741257	
          1.73000000	         -1.36286606	          3.02085555	          0.72160454	
          1.74000000	         -1.41182055	          3.18017806	          0.71475954	
          1.75000000	         -1.40252180	          3.31114335	          0.71687336	
          1.76000000	         -1.33807906	          3.41749400	          0.72696242	
          1.77000000	         -1.22715966	          3.50183823	          0.74327725	
          1.78000000	         -1.08365472	          3.56531599	          0.76362509	
          1.79000000	         -0.92538199	          3.60757615	          0.78573512	
          1.80000000	         -0.77148341	          3.62714185	          0.80759886	
          1.81000000	         -0.63885120	          3.62213660	          0.82774960	
          1.82000000	         -0.53863124	          3.59118570	          0.84546538	
          1.83000000	         -0.47414142	          3.53418541	          0.86085656	
          1.84000000	         -0.44119361	          3.45262203	          0.87476115	
          1.85000000	         -0.43079913	          3.34928781	          0.88840767	
          1.86000000	         -0.43290142	          3.22757527	          0.90295620	
          1.87000000	         -0.43927982	          3.09078017	          0.91913348	
          1.88000000	         -0.44486224	          2.94167216	          0.93705907	
          1.89000000	         -0.44793342	          2.78230744	          0.95624128	
          1.90000000	         -0.44998059	          2.61389917	          0.97561693	
          1.91000000	         -0.45507234	          2.43682765	          0.99369603	
